<?xml version="1.0" standalone="no"?>
<!DOCTYPE svg PUBLIC "-//W3C//DTD SVG 20010904//EN"
 "http://www.w3.org/TR/2001/REC-SVG-20010904/DTD/svg10.dtd">
<svg version="1.0" xmlns="http://www.w3.org/2000/svg"
 width="512.000000pt" height="512.000000pt" viewBox="0 0 512.000000 512.000000"
 preserveAspectRatio="xMidYMid meet">
<metadata>
Created by potrace 1.14, written by Peter Selinger 2001-2017
</metadata>
<g transform="translate(0.000000,512.000000) scale(0.100000,-0.100000)"
fill="#000000" stroke="none">
<path d="M2500 3976 c-76 -41 -153 -83 -212 -117 -36 -22 -71 -39 -77 -39 -6
0 -11 -4 -11 -10 0 -5 -4 -10 -9 -10 -5 0 -141 -73 -302 -163 l-294 -163 -3
-336 -2 -335 -28 -13 c-15 -7 -34 -16 -42 -21 -8 -4 -37 -20 -65 -33 -55 -28
-147 -80 -182 -102 -13 -8 -26 -15 -30 -15 -5 -1 -20 -10 -35 -20 -14 -10 -28
-19 -31 -19 -3 0 -34 -17 -69 -37 l-64 -38 1 -180 c1 -99 -1 -186 -3 -193 -3
-7 -30 -26 -61 -43 -31 -16 -83 -45 -116 -64 -33 -19 -93 -51 -133 -72 -39
-21 -72 -40 -72 -44 0 -3 10 -11 23 -17 12 -6 54 -29 92 -51 39 -22 120 -67
180 -100 153 -84 227 -126 320 -178 89 -50 167 -94 234 -129 24 -13 50 -29 57
-35 18 -15 34 -9 195 82 79 44 171 95 204 114 33 18 83 45 110 60 28 16 102
57 165 92 63 34 122 67 130 72 8 6 38 22 65 37 28 15 58 32 69 40 21 14 56 0
193 -83 40 -24 75 -43 77 -43 3 0 31 -15 63 -34 60 -34 120 -68 208 -116 28
-15 113 -62 190 -105 77 -43 161 -90 186 -103 l47 -24 56 31 c31 17 82 45 114
63 31 17 74 42 94 55 21 13 40 23 43 23 5 0 126 66 215 118 19 12 58 33 85 48
28 15 91 49 140 77 50 28 111 62 137 76 52 28 52 28 -12 63 -25 14 -62 35 -83
47 -21 12 -71 40 -110 62 -40 22 -74 45 -78 50 -3 5 -5 102 -4 217 1 169 -2
212 -15 235 -13 24 -52 85 -187 294 l-33 52 -113 -50 c-61 -28 -119 -54 -127
-59 -8 -5 -35 -20 -60 -32 -25 -13 -48 -27 -52 -33 -4 -5 -8 -8 -9 -5 -1 3 -2
173 -3 379 -1 321 -3 375 -16 382 -8 4 -48 27 -89 50 -41 23 -97 54 -125 69
-69 37 -124 67 -231 127 -49 28 -108 60 -130 73 -22 12 -103 57 -180 100 -169
95 -164 93 -195 76z"/>
</g>
</svg>
